Input #0, matroska,webm, from 'c:\Users\Minko\Downloads\[NOOBDLxFortunaTV]Chainsaw.Man.Movie.Reze-hen.1080p.WEB-DL.x264.mkv':
  Metadata:
    encoder         : libebml v1.4.5 + libmatroska v1.7.1
  Duration: 01:39:31.08, start: 0.000000, bitrate: 6807 kb/s
  Stream #0:0(rus): Video: h264 (High), yuv420p(tv, bt709, progressive), 1920x804 [SAR 1:1 DAR 160:67], 24 fps, 24 tbr, 1k tbn (default)
    Metadata:
      BPS             : 5909133
      DURATION        : 01:39:31.084000000
      NUMBER_OF_FRAMES: 143306
      NUMBER_OF_BYTES : 4410491725
      _STATISTICS_WRITING_APP: mkvmerge v96.0 ('It's My Life') 64-bit
      _STATISTICS_TAGS: BPS DURATION NUMBER_OF_FRAMES NUMBER_OF_BYTES
  Stream #0:1(rus): Audio: eac3, 48000 Hz, 5.1(side), fltp, 448 kb/s (default)
    Metadata:
      title           : DUB | Flarrow Films
      BPS             : 448000
      DURATION        : 01:39:31.072000000
      NUMBER_OF_FRAMES: 186596
      NUMBER_OF_BYTES : 334380032
      _STATISTICS_WRITING_APP: mkvmerge v96.0 ('It's My Life') 64-bit
      _STATISTICS_TAGS: BPS DURATION NUMBER_OF_FRAMES NUMBER_OF_BYTES
  Stream #0:2(jpn): Audio: eac3, 48000 Hz, 5.1(side), fltp, 448 kb/s
    Metadata:
      BPS             : 448000
      DURATION        : 01:39:31.072000000
      NUMBER_OF_FRAMES: 186596
      NUMBER_OF_BYTES : 334380032
      _STATISTICS_WRITING_APP: mkvmerge v96.0 ('It's My Life') 64-bit
      _STATISTICS_TAGS: BPS DURATION NUMBER_OF_FRAMES NUMBER_OF_BYTES
  Stream #0:3(rus): Subtitle: subrip
    Metadata:
      BPS             : 60
      DURATION        : 01:38:22.837000000
      NUMBER_OF_FRAMES: 825
      NUMBER_OF_BYTES : 44787
      _STATISTICS_WRITING_APP: mkvmerge v96.0 ('It's My Life') 64-bit
      _STATISTICS_TAGS: BPS DURATION NUMBER_OF_FRAMES NUMBER_OF_BYTES
At least one output file must be specified
